<svg xmlns="http://www.w3.org/2000/svg" data-name="Layer 1" viewBox="0 0 512 512" id="hoodies"><path d="M212.917 271.51a7.494 7.494 0 0 0 9.656-4.389c.025-.065.082-.223.105-.289a7.501 7.501 0 1 0-9.761 4.678Zm49.286 42.563-.137.024a7.5 7.5 0 1 0 2.684 14.758l.06-.01a7.5 7.5 0 1 0-2.607-14.772Zm-.168-69.953.278.046a7.5 7.5 0 1 0 2.343-14.815l-1.317 7.384 1.304-7.386a7.5 7.5 0 1 0-2.608 14.771ZM299 271.49a7.542 7.542 0 0 0-7.5 7.55v.171a7.5 7.5 0 0 0 15 0v-.27a7.457 7.457 0 0 0-7.5-7.45Zm-5.234 29.56a7.534 7.534 0 1 0 .848 10.608l.065-.077a7.458 7.458 0 0 0-.913-10.532Zm190.92-14.342-73.695-163.412a23.376 23.376 0 0 0-10.39-11.008L362.08 92.106l-11.277-50.078a7.47 7.47 0 0 0-1.019-2.412 21.735 21.735 0 0 0-7.183-8.833C322.596 16.334 281.27-6.64 229.27 1.8a145.56 145.56 0 0 0-66.15 29.348 21.523 21.523 0 0 0-8.258 16.06l-8.238 46.582-35.236 18.497a23.293 23.293 0 0 0-10.376 11.02L27.315 286.704a23.218 23.218 0 0 0 .042 19.202l46.82 102.56a7.474 7.474 0 0 0 9.067 4.038l12.804 23.764a7.495 7.495 0 0 0 9.491 3.363l19.385-8.092c-.369 21.121-1.09 42.44-2.195 63.56a16.08 16.08 0 0 0 16.061 16.902h234.25a16.065 16.065 0 0 0 16.05-16.91 1838.053 1838.053 0 0 1-2.194-63.627l19.565 8.167a7.495 7.495 0 0 0 9.491-3.363l12.804-23.763a7.476 7.476 0 0 0 9.066-4.039l46.822-102.561a23.218 23.218 0 0 0 .043-19.197ZM347.439 95.363a138.416 138.416 0 0 1-35.682 18.646 138.558 138.558 0 0 1-17.501 4.841 160.88 160.88 0 0 0 41.932-39.592q3.011-4.065 5.741-8.363Zm-91.814 25.627c-13.613-4.372-46.796-16.074-69.25-44.336q-3.2-4.03-6.063-8.327a129.421 129.421 0 0 1 51.366-20.574c40.62-6.604 74.338 8.557 93.77 20.719-.44.617-.863 1.249-1.313 1.856-23.634 31.903-52.236 45.301-68.51 50.662Zm-85.223-75.506a6.72 6.72 0 0 1 1.99-2.543 130.515 130.515 0 0 1 59.284-26.333 124.343 124.343 0 0 1 19.962-1.615c37.271 0 66.727 16.79 82.181 27.95a6.462 6.462 0 0 1 2.127 8.123 129.644 129.644 0 0 1-2.488 4.725c-21.455-13.433-58.83-30.213-104.186-22.844a144.368 144.368 0 0 0-56.574 22.418 128.176 128.176 0 0 1-2.29-4.681 6.17 6.17 0 0 1-.547-2.141Zm-4.88 27.596a141.95 141.95 0 0 0 9.109 12.904c12.218 15.38 27.059 26.302 40.797 34.027a119.356 119.356 0 0 1-20.334-5.906 120.776 120.776 0 0 1-33.345-19.693Zm-59.49 350.092-8.733-16.208 33.621-14.034 8.732 16.208Zm227.317 73.83H178.459V452.43c8.298-2.572 22.29-9.134 29.885-25.162a47.115 47.115 0 0 0 2.9-32.196h89.726a48.605 48.605 0 0 0 3.975 33.06c7.617 14.902 20.515 21.408 28.403 24.11Zm72.622-73.83-33.621-14.034 8.732-16.208 33.621 14.034Zm65.028-123.495-43.82 95.988-39.698-16.357 29.74-72.393a17.34 17.34 0 0 0-.887-16.99l-52.56-82.861a7.5 7.5 0 0 0-12.666 8.035l26.055 41.076c-.952 12.27-1.779 24.342-2.45 35.9a1864.394 1864.394 0 0 0-3.001 86.157l-.805 1.96-15.69 29.12a7.5 7.5 0 0 0 3.714 10.478l12.86 5.37a1854.927 1854.927 0 0 0 2.32 70.72 1.027 1.027 0 0 1-.289.787 1.053 1.053 0 0 1-.781.334h-24.692v-50.474a7.501 7.501 0 0 0-6.119-7.372c-1.675-.314-16.585-3.483-23.926-17.849-7.515-14.703-.961-28.852-.19-30.416a7.5 7.5 0 0 0-6.725-10.818H200.42a7.5 7.5 0 0 0-6.578 11.102c.824 1.504 7.847 15.11.947 29.67-7.386 15.586-24.182 18.156-24.893 18.258a7.5 7.5 0 0 0-6.437 7.425V497H138.79a1.057 1.057 0 0 1-.784-.336 1.039 1.039 0 0 1-.296-.792 1849.607 1849.607 0 0 0 2.318-70.639l13.042-5.444a7.5 7.5 0 0 0 3.714-10.478l-15.693-29.125-.99-2.413a1845.092 1845.092 0 0 0-2.994-85.698c-.7-12.008-1.519-23.98-2.428-35.65l26.214-41.327a7.5 7.5 0 1 0-12.666-8.035l-52.554 82.851a17.344 17.344 0 0 0-.894 17l29.739 72.4-39.695 16.35-43.82-95.987a8.227 8.227 0 0 1-.016-6.803l73.701-163.405a8.232 8.232 0 0 1 3.668-3.897l35.205-18.482a135.617 135.617 0 0 0 36.077 20.986c1.522.595 3.058 1.152 4.601 1.69v85.139a7.5 7.5 0 0 0 15 0v-80.87a138.5 138.5 0 0 0 30.164 3.323 139.788 139.788 0 0 0 16.43-.979c3.45.226 6.892.35 10.321.35a153.091 153.091 0 0 0 31.198-3.2v81.376a7.5 7.5 0 0 0 15 0v-85.298a155.95 155.95 0 0 0 4.343-1.435 153.44 153.44 0 0 0 40.756-21.557l36.188 18.96a8.291 8.291 0 0 1 3.684 3.899l73.692 163.403a8.225 8.225 0 0 1-.017 6.8Zm-83.421 39.924a1829.68 1829.68 0 0 1 2.11-46.655c.294-5.068.624-10.251.975-15.489l13.01 20.511a2.312 2.312 0 0 1 .094 2.317q-.167.316-.303.647Zm-263.344-.457-15.696-38.212q-.136-.331-.303-.647a2.318 2.318 0 0 1 .099-2.326l12.842-20.246q.506 7.593.958 15.236a1832.77 1832.77 0 0 1 2.1 46.195Zm114.02-29.278a7.5 7.5 0 0 0-7.586 12.941l.183.104a7.5 7.5 0 0 0 7.403-13.045Zm50.66-50.934a7.5 7.5 0 0 0 5.72-12.345l-.064-.076a7.458 7.458 0 0 0-10.538-.843 7.534 7.534 0 0 0 4.881 13.264Zm-54.51-9.505a7.524 7.524 0 1 0-3.612-14.081l-.182.104a7.503 7.503 0 0 0 3.794 13.977Zm-21.267 37.28a7.5 7.5 0 0 0-4.655 9.53c.023.066.08.224.105.29a7.5 7.5 0 1 0 4.55-9.82Z"></path></svg>