<svg xmlns="http://www.w3.org/2000/svg" viewBox="0 0 511.998 511.998" id="clothing"><path d="M505.192 221.428a16.996 16.996 0 0 0-3.704-10.013L375.753 53.963a16.987 16.987 0 0 0-13.276-6.389H149.522a16.975 16.975 0 0 0-13.276 6.394L10.511 211.42a16.963 16.963 0 0 0-3.704 10.013L.011 417.398a16.992 16.992 0 0 0 16.98 17.58h58.897c8.501 0 15.694-6.281 16.838-14.703l18.498-136.026 15.099-15.451-2.288 178.413a16.981 16.981 0 0 0 4.899 12.154 16.977 16.977 0 0 0 12.092 5.058h229.947a16.985 16.985 0 0 0 16.991-17.206l-2.294-178.424 15.094 15.451 18.503 136.025c1.144 8.428 8.337 14.703 16.838 14.703h58.903a16.992 16.992 0 0 0 16.98-17.58l-6.796-195.964zm-54.247 179.557-17.257-126.89a17.01 17.01 0 0 0-4.684-9.583l-48.708-49.841a16.983 16.983 0 0 0-18.662-3.817 16.995 16.995 0 0 0-10.484 15.915l2.605 203.673H158.232l2.611-203.662a16.991 16.991 0 0 0-10.478-15.915 16.972 16.972 0 0 0-18.662 3.817l-48.708 49.841a16.992 16.992 0 0 0-4.684 9.583l-17.257 126.89H34.582l5.992-172.772 117.12-146.668h196.61L471.43 228.219l5.998 172.766h-26.483z"></path><path d="M300.176 65.132c0 24.773-19.404 44.177-44.177 44.177s-44.177-19.404-44.177-44.177H177.84c0 43.101 35.064 78.159 78.159 78.159s78.159-35.058 78.159-78.159h-33.982zM19.256 336.99h65.133v33.982H19.256zM427.61 336.99h65.133v33.982H427.61zM142.725 369.273h226.549v33.982H142.725z"></path></svg>