<svg xmlns="http://www.w3.org/2000/svg" width="64" height="64" id="mens"><g fill="none" stroke="#494949" stroke-linecap="round" stroke-linejoin="round" stroke-miterlimit="10" stroke-width="1.5"><path d="M51.493 48.523c.505 1.552 1.384 3.346 1.384 3.346l5.355-.973c.326-.813-1.143-3.652-1.143-3.652l.006.021.09-.021-8.526-30.699-8.294-3.088-1.725-2.883-5.97-1.194h-.352l-5.972 1.193-1.186 2.883-8.834 3.088-8.526 30.7.146.031.016-.031s-1.421 2.841-1.096 3.652l5.356.973s.831-1.794 1.334-3.346l6.183-19.175.213 22.727 12.367 2.629h.352l12.365-2.629.214-22.727 6.184 19.175M23.038 29.552h5.556M35.686 29.552h5.554"></path><path d="M39.979 12.815c-.67 2.441-4.248 4.522-4.248 4.522l-3.327 1.1-2.566-.763c-2.567-.62-4.454-4.755-4.454-4.755l.963-2.346 3.425 2.915 2.695 1.089 2.748-1.089 3.426-2.915 1.338 2.242zM7.961 47.244s-1.421 2.841-1.096 3.652l5.356.973s.831-1.794 1.334-3.346l-2.847-.633-2.764-.615M51.493 48.523c.505 1.552 1.384 3.346 1.384 3.346l5.355-.973c.326-.813-1.143-3.652-1.143-3.652l.006.021-2.836.629-2.828.629"></path><path d="m32.319 54.704-12.367-2.629-.213-22.727-6.183 19.175c-.503 1.552-1.334 3.346-1.334 3.346l-5.356-.973c-.325-.813 1.096-3.652 1.096-3.652l-.016.031-.146-.031 8.527-30.699 8.834-3.088 1.186-2.883 3.425 2.915 2.695 1.089s-.878 34.007.203 40.126"></path><path d="M32.67 54.704c-1.081-6.119-.203-40.126-.203-40.126l2.748-1.089 3.426-2.915 1.726 2.883 8.294 3.088 8.527 30.699-.092.021-.005-.021s1.47 2.841 1.142 3.652l-5.354.973s-.879-1.794-1.384-3.346h-.061l-6.185-19.175-.214 22.727-12.365 2.629h-.352"></path><path d="m26.347 10.574 5.972-1.194h.351l5.971 1.194-3.426 2.915-2.748 1.089-2.695-1.089z"></path></g></svg>