<svg xmlns="http://www.w3.org/2000/svg" data-name="Layer 2" viewBox="0 0 64 64" id="t-shirt"><path d="M61.5,13.13l-1-.56a57.48,57.48,0,0,0-57,0l-1,.56a1,1,0,0,0-.41,1.29l7,15a1,1,0,0,0,1.3.5c.85-.36,1.73-.7,2.61-1V55a1,1,0,0,0,.38.78C13.59,56,18.8,60,32,60s18.41-4,18.62-4.22A1,1,0,0,0,51,55V28.9c.88.32,1.75.66,2.61,1a1,1,0,0,0,1.3-.5l7-15A1,1,0,0,0,61.5,13.13ZM32,7a55.34,55.34,0,0,1,7,.45,7,7,0,0,1-14,0A55.34,55.34,0,0,1,32,7ZM53.5,27.71c-.82-.33-1.66-.63-2.5-.92V21H49V54.47C47.63,55.32,42.49,58,32,58s-15.64-2.68-17-3.53V21H13v5.79c-.84.29-1.68.59-2.5.92L4.3,14.41l.18-.1A55.57,55.57,0,0,1,23,7.73,9,9,0,0,0,41,7.73a55.57,55.57,0,0,1,18.56,6.58l.18.1Z"></path><path d="M45,21H37a1,1,0,0,0-1,1v7a1,1,0,0,0,.05.32C36.1,29.47,37.32,33,41,33s4.9-3.53,4.95-3.68A1,1,0,0,0,46,29V22A1,1,0,0,0,45,21Zm-1,7.81a3.15,3.15,0,0,1-6,0V23h6Z"></path></svg>