<svg xmlns="http://www.w3.org/2000/svg" width="64" height="64" viewBox="0 0 64 64" id="t"><g fill="none" stroke="#494949" stroke-linecap="round" stroke-linejoin="round" stroke-miterlimit="10" stroke-width="1.5"><path d="M32.975 56.861c6.635.113 13.66-.731 13.66-.731 0-20.069.448-29.151.448-29.151l2.69 2.859 7.85-6.613-6.055-9.139c-2.523-3.307-4.205-3.923-4.205-3.923l-8.186-3.365c-2.746 1.963-6.203 1.818-6.203 1.818h-.301s-3.456.145-6.204-1.818l-8.186 3.365s-1.682.617-4.204 3.923l-6.056 9.139 7.849 6.613 2.69-2.859s.449 9.083.449 29.151c0 0 7.026.845 13.661.731h.303z"></path><path d="M49.378 11.618c.618.58 1.358 1.377 2.19 2.467l6.055 9.139-7.85 6.613-2.69-2.859c-.448-10.818 2.295-15.359 2.295-15.36zM16.271 11.618c-.618.58-1.358 1.377-2.19 2.467l-6.055 9.139 7.849 6.613 2.69-2.859c.449-10.818-2.294-15.359-2.294-15.36zM26.471 6.797s1.643 5.105 6.204 4.994h.3c4.562.111 6.205-4.994 6.205-4.994l3.85 1.582c-.262.948-2.314 7.375-10.004 7.373h-.401c-7.692.003-9.743-6.432-10.002-7.374v.001l3.848-1.582z"></path><path d="M39.18 6.797s-1.644 5.105-6.205 4.994h-.3c-4.561.111-6.204-4.994-6.204-4.994 2.748 1.963 6.204 1.818 6.204 1.818h.3s3.459.145 6.205-1.818z"></path></g></svg>