<svg xmlns="http://www.w3.org/2000/svg" width="64" height="64" enable-background="new 0 0 64 64" viewBox="0 0 64 64" id="tank-top"><path d="M18.996,18.998c-0.553,0-1-0.447-1-1V1c0-0.553,0.447-1,1-1s1,0.447,1,1v16.998
				C19.996,18.551,19.549,18.998,18.996,18.998z"></path><path d="M12.996 24.998c-.553 0-1-.447-1-1s.447-1 1-1c2.757 0 5-2.243 5-5 0-.553.447-1 1-1s1 .447 1 1C19.996 21.857 16.855 24.998 12.996 24.998zM45.004 18.998c-.553 0-1-.447-1-1V1c0-.553.447-1 1-1s1 .447 1 1v16.998C46.004 18.551 45.557 18.998 45.004 18.998z"></path><path d="M51.004 24.998c-3.859 0-7-3.141-7-7 0-.553.447-1 1-1s1 .447 1 1c0 2.757 2.243 5 5 5 .553 0 1 .447 1 1S51.557 24.998 51.004 24.998zM24.997 2h-6.001c-.553 0-1-.447-1-1s.447-1 1-1h6.001c.553 0 1 .447 1 1S25.55 2 24.997 2zM45.004 2h-6.006c-.553 0-1-.447-1-1s.447-1 1-1h6.006c.553 0 1 .447 1 1S45.557 2 45.004 2zM31.997 21C27.588 21 24 17.413 24 13.004c0-.553.447-1 1-1s1 .447 1 1C26 16.311 28.69 19 31.997 19s5.997-2.689 5.997-5.996c0-.553.447-1 1-1s1 .447 1 1C39.994 17.413 36.406 21 31.997 21z"></path><path d="M24.997 14.004c-.553 0-1-.447-1-1V1c0-.553.447-1 1-1s1 .447 1 1v12.004C25.997 13.557 25.55 14.004 24.997 14.004zM38.997 14.004c-.553 0-1-.447-1-1V1c0-.553.447-1 1-1s1 .447 1 1v12.004C39.997 13.557 39.55 14.004 38.997 14.004zM51.004 64c-.553 0-1-.447-1-1V23.998c0-.553.447-1 1-1s1 .447 1 1V63C52.004 63.553 51.557 64 51.004 64zM12.996 64c-.553 0-1-.447-1-1V23.998c0-.553.447-1 1-1s1 .447 1 1V63C13.996 63.553 13.549 64 12.996 64z"></path><path d="M51.004 64H12.996c-.553 0-1-.447-1-1s.447-1 1-1h38.008c.553 0 1 .447 1 1S51.557 64 51.004 64zM51.004 61H12.996c-.553 0-1-.447-1-1s.447-1 1-1h38.008c.553 0 1 .447 1 1S51.557 61 51.004 61z"></path></svg>